<svg width="450" height="449" viewBox="0 0 450 449" fill="none" xmlns="http://www.w3.org/2000/svg">
<g clip-path="url(#clip0_1_7)">
<g clip-path="url(#clip1_1_7)">
<g clip-path="url(#clip2_1_7)">
<g clip-path="url(#clip3_1_7)">
<g clip-path="url(#clip4_1_7)">
<g clip-path="url(#clip5_1_7)">
<g clip-path="url(#clip6_1_7)">
<g clip-path="url(#clip7_1_7)">
<path d="M230.513 206.706C230.513 201.513 222.006 197.302 211.514 197.302C201.023 197.302 192.515 201.513 192.515 206.706C192.515 208.295 193.32 209.79 194.726 211.103C193.318 212.415 192.515 213.91 192.515 215.5C192.515 220.693 201.023 224.903 211.514 224.903C222.006 224.903 230.513 220.693 230.513 215.5C230.513 213.91 229.708 212.415 228.303 211.103C229.708 209.792 230.513 208.297 230.513 206.706ZM211.512 222.479C202.029 222.479 194.945 218.795 194.945 215.502C194.945 214.529 195.577 213.522 196.698 212.585C200.181 214.73 205.519 216.109 211.514 216.109C217.509 216.109 222.848 214.73 226.33 212.585C227.449 213.522 228.084 214.529 228.084 215.502C228.081 218.795 220.997 222.479 211.512 222.479Z" fill="white"/>
<path d="M320.034 170.357L319.927 170.306L317.408 169.071L306.293 163.628L235.419 128.917L233.476 127.966C232.661 127.617 231.812 127.335 230.951 127.088C229.04 126.537 227.026 126.221 224.939 126.221C212.964 126.221 203.253 135.909 203.253 147.86C203.253 148.641 203.299 149.413 203.379 150.172C203.608 152.322 204.165 154.375 204.979 156.29L204.194 157.173C202.574 157.843 201.327 158.886 200.514 159.799L196.03 164.863C187.887 165.926 181.873 169.583 181.873 173.946C181.873 175.535 182.678 177.03 184.083 178.343C183.66 178.736 183.315 179.151 183.006 179.576L150.079 216.776C142.114 217.895 136.272 221.513 136.272 225.815C136.272 227.342 137.028 228.776 138.332 230.05L120.06 250.691L119.958 250.822C119.274 251.838 118.929 252.892 118.934 253.899C118.973 254.889 119.289 255.731 119.754 256.451V275.867C119.754 278.546 121.933 280.72 124.618 280.72L140.727 275.772V318.081C140.727 320.672 142.836 322.779 145.443 322.779C148.045 322.779 150.156 320.675 150.156 318.078V272.875L154.109 271.662V274.093C154.109 276.52 156.079 278.49 158.515 278.493C160.95 278.488 162.925 276.52 162.925 274.093V268.953L231.306 247.949L241.051 244.957V261.052C241.051 264.321 243.707 266.968 246.981 266.968C250.252 266.968 252.908 264.319 252.908 261.052V241.314L318.777 221.268C321.513 220.559 323.237 219.346 324.149 216.616C324.149 216.616 330.018 196.118 330.937 189.115C331.98 181.151 326.542 174.094 320.034 170.357ZM280.441 197.722C281.559 198.659 282.194 199.666 282.194 200.639C282.194 203.932 275.11 207.615 265.627 207.615C256.145 207.615 249.06 203.932 249.06 200.639C249.06 199.666 249.695 198.659 250.814 197.722C254.296 199.867 259.635 201.246 265.63 201.246C271.625 201.246 276.96 199.87 280.441 197.722ZM184.803 181.216L185.893 179.983C185.951 179.932 185.995 179.879 186.056 179.828C189.538 181.973 194.877 183.352 200.872 183.352C206.867 183.352 212.205 181.973 215.688 179.828C216.806 180.765 217.441 181.772 217.441 182.745C217.441 186.038 210.354 189.722 200.874 189.722C191.394 189.722 184.307 186.038 184.307 182.745C184.305 182.238 184.482 181.726 184.803 181.216ZM140.458 231.695C143.94 233.843 149.279 235.218 155.273 235.218C161.268 235.218 166.607 233.843 170.089 231.695C171.208 232.632 171.843 233.639 171.843 234.612C171.843 237.902 164.758 241.588 155.276 241.588C145.793 241.588 138.709 237.902 138.709 234.612C138.704 233.639 139.336 232.632 140.458 231.695ZM300.945 206.591L267.422 216.189L265.056 216.866C265.056 216.883 265.065 216.897 265.065 216.914V224.803C265.06 226.138 263.978 227.223 262.636 227.228C261.291 227.223 260.204 226.138 260.204 224.803L260.201 220.778L260.199 218.254L257.769 218.95L252.905 220.343L250.471 221.04V223.563L250.473 242.057L250.476 261.047C250.471 262.977 248.907 264.532 246.978 264.537C245.045 264.532 243.481 262.977 243.479 261.047V223.044L241.049 223.74L229.618 227.014L227.245 227.693C227.296 227.892 227.366 228.082 227.366 228.293V230.183L227.371 240.123C227.366 241.545 226.214 242.7 224.786 242.702C223.361 242.697 222.203 241.542 222.203 240.123V229.135L219.771 229.831L162.922 246.107L160.49 246.803V274.093C160.485 275.183 159.603 276.063 158.511 276.063C157.423 276.063 156.536 275.183 156.536 274.093V247.934L154.104 248.63L150.152 249.761L147.72 250.458V318.078C147.717 319.335 146.701 320.35 145.443 320.352C144.183 320.347 143.162 319.333 143.16 318.076V251.766L140.727 252.46L125.617 256.786C125.486 256.823 125.296 256.847 125.075 256.847C124.343 256.852 123.302 256.519 122.555 255.949C121.797 255.369 121.366 254.673 121.366 253.896C121.366 253.452 121.5 252.918 121.923 252.251L136.452 235.835C137.668 240.445 145.623 244.013 155.273 244.013C165.765 244.013 174.273 239.802 174.273 234.609C174.273 233.02 173.468 231.525 172.062 230.212C173.468 228.899 174.273 227.405 174.273 225.815C174.273 220.622 165.765 216.412 155.273 216.412C154.714 216.412 154.16 216.429 153.61 216.453L182.133 184.23C183.578 188.714 191.406 192.146 200.874 192.146C211.366 192.146 219.873 187.936 219.873 182.743C219.873 181.153 219.068 179.658 217.663 178.345C219.071 177.033 219.873 175.538 219.873 173.948C219.873 168.755 211.366 164.545 200.874 164.545C200.419 164.545 199.977 164.562 199.532 164.579L202.341 161.408C203.335 160.282 205.264 158.889 207.643 158.903C208.601 158.903 209.656 159.114 210.836 159.675L260.722 182.769C252.611 183.839 246.626 187.491 246.626 191.845C246.626 193.434 247.431 194.929 248.836 196.242C247.431 197.555 246.626 199.049 246.626 200.639C246.626 205.832 255.133 210.042 265.625 210.042C276.117 210.042 284.624 205.832 284.624 200.639C284.624 199.049 283.819 197.555 282.413 196.242C283.272 195.441 283.87 194.57 284.235 193.655L303.771 202.702C304.138 203.357 304.25 203.842 304.25 204.17C304.394 205.114 302.869 206.065 300.945 206.591ZM319.789 179.304C311.69 179.319 304.897 186.858 304.892 196.443C304.892 197.115 304.348 197.657 303.676 197.657C303.003 197.657 302.455 197.115 302.455 196.443C302.475 185.754 310.087 176.902 319.789 176.877C320.455 176.877 321.005 177.418 321.005 178.091C321.005 178.763 320.455 179.304 319.789 179.304Z" fill="white"/>
<path d="M172.451 214.18C173.23 214.18 173.862 213.549 173.862 212.772C173.862 211.995 173.23 211.365 172.451 211.365C171.672 211.365 171.04 211.995 171.04 212.772C171.04 213.549 171.672 214.18 172.451 214.18Z" fill="white"/>
<path d="M206.298 162.817C207.077 162.817 207.708 162.187 207.708 161.41C207.708 160.633 207.077 160.003 206.298 160.003C205.519 160.003 204.887 160.633 204.887 161.41C204.887 162.187 205.519 162.817 206.298 162.817Z" fill="white"/>
<path d="M177.619 214.5C178.855 214.5 179.857 213.5 179.857 212.267C179.857 211.034 178.855 210.035 177.619 210.035C176.383 210.035 175.382 211.034 175.382 212.267C175.382 213.5 176.383 214.5 177.619 214.5Z" fill="white"/>
<path d="M174.071 210.142C176.085 210.142 177.719 208.512 177.719 206.502C177.719 204.491 176.085 202.862 174.071 202.862C172.056 202.862 170.423 204.491 170.423 206.502C170.423 208.512 172.056 210.142 174.071 210.142Z" fill="white"/>
<path d="M132.828 247.953C133.889 247.953 134.75 247.095 134.75 246.036C134.75 244.978 133.889 244.119 132.828 244.119C131.767 244.119 130.907 244.978 130.907 246.036C130.907 247.095 131.767 247.953 132.828 247.953Z" fill="white"/>
<path d="M139.11 248.543C140.722 248.543 142.029 247.239 142.029 245.631C142.029 244.023 140.722 242.719 139.11 242.719C137.498 242.719 136.192 244.023 136.192 245.631C136.192 247.239 137.498 248.543 139.11 248.543Z" fill="white"/>
<path d="M240.648 217.841C241.494 217.841 242.18 217.157 242.18 216.313C242.18 215.468 241.494 214.784 240.648 214.784C239.801 214.784 239.116 215.468 239.116 216.313C239.116 217.157 239.801 217.841 240.648 217.841Z" fill="white"/>
<path d="M246.83 218.135C248.119 218.135 249.165 217.092 249.165 215.805C249.165 214.519 248.119 213.476 246.83 213.476C245.54 213.476 244.495 214.519 244.495 215.805C244.495 217.092 245.54 218.135 246.83 218.135Z" fill="white"/>
<path d="M194.947 231.076C196.237 231.076 197.282 230.033 197.282 228.747C197.282 227.46 196.237 226.417 194.947 226.417C193.658 226.417 192.613 227.46 192.613 228.747C192.613 230.033 193.658 231.076 194.947 231.076Z" fill="white"/>
<path d="M228.996 195.701C229.842 195.701 230.528 195.016 230.528 194.172C230.528 193.328 229.842 192.643 228.996 192.643C228.15 192.643 227.464 193.328 227.464 194.172C227.464 195.016 228.15 195.701 228.996 195.701Z" fill="white"/>
<path d="M235.178 195.997C236.467 195.997 237.513 194.954 237.513 193.667C237.513 192.381 236.467 191.338 235.178 191.338C233.889 191.338 232.843 192.381 232.843 193.667C232.843 194.954 233.889 195.997 235.178 195.997Z" fill="white"/>
<path d="M243.179 213.58C245.194 213.58 246.828 211.95 246.828 209.94C246.828 207.93 245.194 206.3 243.179 206.3C241.165 206.3 239.531 207.93 239.531 209.94C239.531 211.95 241.165 213.58 243.179 213.58Z" fill="white"/>
<path d="M233.048 179.103C234.109 179.103 234.969 178.244 234.969 177.186C234.969 176.127 234.109 175.269 233.048 175.269C231.986 175.269 231.126 176.127 231.126 177.186C231.126 178.244 231.986 179.103 233.048 179.103Z" fill="white"/>
<path d="M227.169 176.775C229.184 176.775 230.817 175.146 230.817 173.135C230.817 171.125 229.184 169.496 227.169 169.496C225.155 169.496 223.521 171.125 223.521 173.135C223.521 175.146 225.155 176.775 227.169 176.775Z" fill="white"/>
<path d="M292.129 204.679C293.19 204.679 294.05 203.821 294.05 202.762C294.05 201.703 293.19 200.845 292.129 200.845C291.068 200.845 290.208 201.703 290.208 202.762C290.208 203.821 291.068 204.679 292.129 204.679Z" fill="white"/>
<path d="M189.473 231.275C190.534 231.275 191.394 230.417 191.394 229.358C191.394 228.299 190.534 227.441 189.473 227.441C188.412 227.441 187.551 228.299 187.551 229.358C187.551 230.417 188.412 231.275 189.473 231.275Z" fill="white"/>
<path d="M192.107 197.506C193.168 197.506 194.028 196.648 194.028 195.589C194.028 194.53 193.168 193.672 192.107 193.672C191.046 193.672 190.185 194.53 190.185 195.589C190.185 196.648 191.046 197.506 192.107 197.506Z" fill="white"/>
</g>
</g>
<path d="M61.8975 295.023L58.4325 289.286L23.5479 301.807L29.16 317.374L40.1834 315.695L41.5768 319.56L27.4066 324.646L15.308 291.088L18.172 290.06L21.42 295.197L56.078 282.758L55.3034 276.733L58.1673 275.705L64.7614 293.996L61.8975 295.023ZM60.8898 368.836L65.1503 372.072L71.3684 362.617L61.1212 349.773L50.4129 353.599L52.658 358.517L50.2762 360.409L40.6575 348.352L43.0393 346.461L47.2998 349.697L89.3941 335.469L93.4554 340.56L69.9991 378.149L72.1237 382.918L69.742 384.809L58.508 370.726L60.8898 368.836ZM85.6832 341.237L85.5225 341.036L65.0973 348.392L73.6489 359.11L85.6832 341.237ZM136.67 431.475C134.449 430.429 132.629 429.165 131.215 427.687C129.791 426.204 128.776 424.529 128.17 422.665L125.966 425.674L122.201 423.901L128.464 410.659L132.52 412.57C131.006 416.371 130.674 419.472 131.521 421.874C132.358 424.271 134.304 426.189 137.356 427.626C139.916 428.832 142.102 429.242 143.913 428.858C145.724 428.473 147.099 427.294 148.032 425.318C148.807 423.68 149.035 422.137 148.715 420.691C148.4 419.235 147.674 417.726 146.534 416.164C145.385 414.597 143.942 412.892 142.203 411.048C140.302 408.951 138.746 407.01 137.534 405.227C136.323 403.443 135.611 401.64 135.399 399.818C135.194 398.002 135.616 395.991 136.659 393.784C138.386 390.131 140.861 387.833 144.084 386.887C147.296 385.938 150.811 386.361 154.626 388.157C158.403 389.936 160.971 392.447 162.329 395.691L164.011 393.337L167.778 395.11L161.515 408.353L157.69 406.55C159.4 402.936 159.978 399.963 159.429 397.63C158.864 395.301 157.134 393.456 154.236 392.091C149.32 389.775 145.792 390.879 143.654 395.399C143.039 396.7 142.788 397.867 142.902 398.898C143.026 399.934 143.526 401.077 144.399 402.325C145.273 403.572 146.592 405.19 148.359 407.177C150.875 410.048 152.798 412.562 154.127 414.719C155.465 416.882 156.224 418.888 156.399 420.739C156.574 422.589 156.193 424.507 155.255 426.492C154.125 428.882 152.587 430.646 150.644 431.781C148.711 432.921 146.542 433.461 144.138 433.4C141.748 433.335 139.259 432.693 136.67 431.475ZM184.134 413.551L185.922 400.097L223.912 405.125L222.123 418.579L218.613 418.114L217.859 408.468L207.821 407.14L202.973 443.618L209.43 445.989L209.03 449L188.828 446.327L189.228 443.315L196.081 442.708L200.928 406.228L190.827 404.892L187.644 414.016L184.134 413.551ZM275.308 419.114C274.672 419.829 273.909 420.505 273.017 421.138C272.128 421.783 270.985 422.382 269.59 422.937C269.937 423.219 270.394 423.595 270.959 424.063C271.517 424.544 272.073 425.096 272.626 425.718L283.275 437.836L289.04 437.974L289.602 440.958L276.173 443.481L275.609 440.496L263.719 425.259L256.698 426.579L259.637 442.162L265.784 442.342L266.349 445.326L248.384 448.7L247.82 445.716L252.789 443.448L245.975 407.333L240.52 407.023L239.958 404.039L261.951 399.908C263.946 399.533 265.723 399.395 267.286 399.491C268.844 399.578 270.307 399.921 271.67 400.522C273.348 401.238 274.786 402.383 275.987 403.957C277.184 405.522 277.946 407.172 278.274 408.911C278.601 410.649 278.499 412.437 277.965 414.271C277.431 416.108 276.546 417.721 275.308 419.114ZM252.755 405.686L255.962 422.682L264.229 421.13C266.506 420.702 268.269 419.704 269.516 418.136C270.206 417.236 270.675 416.124 270.924 414.797C271.162 413.462 271.148 412.094 270.882 410.691C270.625 409.329 270.143 408.123 269.434 407.075C268.717 406.039 267.877 405.242 266.913 404.685C266.101 404.241 265.204 403.981 264.222 403.906C263.242 403.84 262.091 403.932 260.769 404.18L252.755 405.686ZM336.872 414.955L340.718 411.236L332.28 403.685L318.018 411.869L320.204 423.006L325.414 421.529L326.931 424.162L313.544 431.843L312.027 429.212L315.871 425.493L308.08 381.834L313.732 378.59L347.468 407.363L352.511 405.981L354.028 408.614L338.39 417.588L336.872 414.955ZM313.239 386.361L313.017 386.488L317.245 407.74L329.148 400.911L313.239 386.361ZM353.02 353.782L380.806 378.63L386.923 371.822C388.442 370.132 389.485 368.467 390.052 366.828C390.627 365.181 390.746 363.477 390.407 361.714C390.073 359.883 389.226 357.968 387.868 355.966C386.518 353.971 384.634 351.893 382.217 349.731C377.476 345.491 373.14 343.166 369.207 342.755C367.258 342.529 365.432 342.799 363.725 343.564C362.02 344.328 360.352 345.619 358.719 347.438L353.02 353.782ZM344.03 362.186L341.764 360.159L356.369 343.897C360.561 339.231 365.146 336.777 370.125 336.535C372.954 336.404 375.819 336.934 378.722 338.127C381.623 339.304 384.329 341.017 386.843 343.264C389.483 345.626 391.582 348.254 393.141 351.15C394.706 354.038 395.609 356.921 395.851 359.798C396.249 364.848 394.266 369.801 389.903 374.658L375.683 390.49L373.415 388.464L375.977 383.648L348.548 359.12L344.03 362.186ZM426.381 307.81L427.116 302.519L415.808 301.752L409.621 316.965L418.217 324.396L421.411 320.031L424.231 321.173L418.423 335.451L415.602 334.309L416.337 329.018L383.255 299.404L385.708 293.377L430.044 295.32L433.165 291.133L435.986 292.275L429.202 308.954L426.381 307.81ZM390.113 299.801L390.017 300.038L406.463 314.185L411.626 301.491L390.113 299.801Z" fill="white"/>
<path d="M17.0743 149.286L16.1132 155.803L50.4868 168.09L55.9929 152.755L46.5557 147.141L47.9218 143.332L61.8879 148.326L50.0127 181.402L47.1921 180.394L47.9475 174.449L13.8005 162.245L10.6023 167.315L7.78178 166.308L14.2554 148.279L17.0743 149.286ZM85.2734 109.71L87.4334 104.91L76.9677 101.07L66.8973 113.728L72.9418 123.127L77.175 119.888L79.5214 121.746L70.0682 133.629L67.7218 131.77L69.8834 126.971L46.8354 89.8385L50.8291 84.8177L92.1954 98.9259L96.3096 95.8374L98.6561 97.696L87.6198 111.568L85.2734 109.71ZM53.2318 92.1075L53.0727 92.308L64.6698 110.229L73.0768 99.662L53.2318 92.1075ZM154.742 61.2725C152.568 62.2923 150.47 62.8744 148.45 63.022C146.43 63.1679 144.514 62.8825 142.701 62.1673L143.632 65.7224L139.907 67.4687L133.761 54.4188L137.763 52.5426C139.698 56.0753 141.846 58.2706 144.209 59.1285C146.563 59.9912 149.243 59.7186 152.249 58.3091C154.773 57.1256 156.457 55.7289 157.304 54.1189C158.151 52.5089 158.116 50.7306 157.198 48.7822C156.439 47.1723 155.408 46.0305 154.099 45.3602C152.802 44.6851 151.197 44.2955 149.284 44.1912C147.375 44.0742 145.172 44.0934 142.674 44.2522C139.886 44.3708 137.435 44.3307 135.323 44.1303C133.213 43.9314 131.394 43.3413 129.87 42.3599C128.356 41.3754 127.088 39.7974 126.066 37.6262C124.367 34.0198 124.166 30.6988 125.463 27.6648C126.76 24.6309 129.29 22.2335 133.051 20.4696C136.771 18.7249 140.292 18.3577 143.613 19.3679L142.885 16.6194L146.596 14.8779L152.741 27.9294L148.971 29.6965C147.295 26.1366 145.398 23.8355 143.278 22.7932C141.159 21.7492 138.667 21.8984 135.805 23.2406C130.953 25.5144 129.576 28.8803 131.675 33.3366C132.279 34.6195 133.012 35.5367 133.872 36.0868C134.728 36.6512 135.91 36.9912 137.416 37.1099C138.913 37.2317 140.975 37.2478 143.6 37.1596C147.359 37.0457 150.478 37.1676 152.958 37.5236C155.444 37.8651 157.444 38.5531 158.956 39.5858C160.475 40.6056 161.695 42.0938 162.617 44.0517C163.731 46.4154 164.11 48.686 163.755 50.8653C163.401 53.0445 162.45 55.0217 160.901 56.7953C159.358 58.5785 157.304 60.0714 154.742 61.2725ZM183.743 18.1284L182.009 4.87646L219.436 0L221.17 13.2519L217.723 13.7009L214.528 4.71771L204.647 6.00537L209.35 41.9398L216.087 42.5604L216.476 45.5254L196.586 48.1168L196.198 45.1518L202.55 42.825L197.847 6.89055L187.902 8.18623L187.206 17.6762L183.743 18.1284ZM280.956 28.1523C280.112 28.5885 279.164 28.9397 278.113 29.2075C277.075 29.4656 275.813 29.6051 274.331 29.6276C274.551 30.006 274.836 30.5096 275.183 31.1398C275.529 31.7796 275.84 32.4851 276.117 33.2533L281.502 48.1905L286.726 50.3874L286.165 53.3236L272.944 50.8108L273.505 47.8746L268.113 29.65L261.188 28.3335L258.261 43.6604L263.843 46.0385L263.282 48.9747L245.592 45.6136L246.153 42.6774L251.542 42.3824L258.329 6.83121L253.424 4.5814L253.985 1.64526L275.657 5.76324C277.608 6.13366 279.283 6.64199 280.683 7.28823C282.081 7.93287 283.296 8.77635 284.324 9.81867C285.609 11.0711 286.517 12.6329 287.052 14.5027C287.574 16.3805 287.672 18.1733 287.346 19.8795C287.021 21.5857 286.285 23.1876 285.141 24.6838C283.989 26.1687 282.594 27.3249 280.956 28.1523ZM265.118 7.74685L261.923 24.4865L270.074 26.0356C272.309 26.4605 274.281 26.1783 275.993 25.1905C276.951 24.6132 277.783 23.7585 278.489 22.6232C279.193 21.4975 279.678 20.2403 279.943 18.8468C280.199 17.5078 280.188 16.2297 279.908 15.0158C279.628 13.8019 279.151 12.774 278.476 11.929C277.88 11.2298 277.15 10.6686 276.286 10.2436C275.408 9.82669 274.318 9.49475 273.018 9.2478L265.118 7.74685ZM326.088 70.2925L331.161 71.7229L333.436 60.8299L319.412 52.7447L310.977 60.0874L314.809 63.7917L313.311 66.3798L300.147 58.7901L301.645 56.202L306.72 57.6324L340.157 29.4432L345.719 32.6503L337.793 75.5459L341.458 79.1539L339.959 81.7421L324.588 72.8807L326.088 70.2925ZM338.844 36.0884L338.622 35.9617L322.554 50.0346L334.262 56.7841L338.844 36.0884ZM392.247 75.4448L364.825 99.8592L370.84 106.586C372.333 108.257 373.854 109.46 375.4 110.197C376.947 110.933 378.604 111.237 380.375 111.102C382.214 110.966 384.181 110.348 386.278 109.253C388.392 108.158 390.643 106.546 393.033 104.417C397.712 100.252 400.466 96.272 401.296 92.478C401.728 90.5922 401.662 88.7737 401.096 87.021C400.537 85.2763 399.454 83.5044 397.848 81.7084L392.247 75.4448ZM384.994 65.7496L387.23 63.7596L401.575 79.8017C405.701 84.4136 407.608 89.165 407.298 94.0527C407.11 96.8204 406.276 99.5609 404.798 102.277C403.321 104.979 401.342 107.433 398.864 109.639C396.257 111.96 393.453 113.72 390.449 114.925C387.437 116.134 384.504 116.703 381.648 116.633C376.658 116.461 372.018 113.979 367.73 109.184L353.758 93.5588L355.993 91.5687L360.45 94.6075L387.514 70.5122L384.994 65.7496ZM403.52 163.925L406.636 168.17L415.149 160.983L409.087 145.996L397.913 146.602L398.645 151.874L395.867 152.992L390.177 138.925L392.954 137.806L396.071 142.051L439.814 140.38L442.218 146.324L409.503 175.254L410.164 180.349L407.387 181.468L400.743 165.044L403.52 163.925ZM434.678 144.809L434.583 144.572L413.237 145.79L418.298 158.301L434.678 144.809Z" fill="white"/>
<path d="M6.49768 230.509C6.49768 220.921 14.2875 213.148 23.8982 213.148C33.5073 213.148 41.2971 220.921 41.2971 230.509C41.2971 240.096 33.5073 247.869 23.8982 247.869C14.2891 247.869 6.49929 240.096 6.49768 230.509ZM410.234 230.509C410.234 220.921 418.024 213.148 427.635 213.148C437.244 213.148 445.034 220.921 445.034 230.509C445.034 240.096 437.244 247.869 427.635 247.869C418.026 247.869 410.236 240.096 410.234 230.509Z" fill="white"/>
</g>
</g>
</g>
</g>
</g>
</g>
<defs>
<clipPath id="clip0_1_7">
<rect width="450" height="449" fill="white"/>
</clipPath>
<clipPath id="clip1_1_7">
<rect width="450" height="449" fill="white"/>
</clipPath>
<clipPath id="clip2_1_7">
<rect width="450" height="449" fill="white"/>
</clipPath>
<clipPath id="clip3_1_7">
<rect width="450" height="449" fill="white"/>
</clipPath>
<clipPath id="clip4_1_7">
<rect width="450" height="449" fill="white"/>
</clipPath>
<clipPath id="clip5_1_7">
<rect width="450" height="449" fill="white"/>
</clipPath>
<clipPath id="clip6_1_7">
<rect width="212.132" height="196.557" fill="white" transform="translate(118.934 126.221)"/>
</clipPath>
<clipPath id="clip7_1_7">
<rect width="212.132" height="196.557" fill="white" transform="translate(118.934 126.221)"/>
</clipPath>
</defs>
</svg>
