<svg width="24" height="25" viewBox="0 0 24 25" fill="none" xmlns="http://www.w3.org/2000/svg">
<path d="M21.8667 12.7667C21.7556 10.0778 20.7667 7.80001 18.9 5.93334C17.0333 4.06667 14.7556 3.07779 12.0667 2.96667V0.966675C13.6667 1.01112 15.1722 1.35001 16.5833 1.98334C17.9944 2.61667 19.2333 3.46667 20.3 4.53334C21.3667 5.60001 22.2167 6.8389 22.85 8.25001C23.4833 9.66112 23.8222 11.1667 23.8667 12.7667H21.8667ZM16.2333 12.7667C16.1222 11.6556 15.6778 10.7167 14.9 9.95001C14.1222 9.18334 13.1778 8.74445 12.0667 8.63334V6.63334C13.7333 6.74445 15.15 7.37779 16.3167 8.53334C17.4833 9.6889 18.1222 11.1 18.2333 12.7667H16.2333ZM22.5 25C19.7889 25 17.0944 24.3333 14.4167 23C11.7389 21.6667 9.33333 19.9333 7.2 17.8C5.06667 15.6667 3.33333 13.2611 2 10.5833C0.666667 7.90556 0 5.21112 0 2.50001C0 2.07143 0.142855 1.71429 0.428567 1.42857C0.714278 1.14286 1.07142 1.00001 1.5 1.00001H6.16667C6.46913 1.00001 6.7392 1.10556 6.97687 1.31667C7.21451 1.52779 7.36667 1.81112 7.43333 2.16667L8.33333 6.36667C8.37778 6.67779 8.37222 6.96112 8.31667 7.21667C8.26111 7.47223 8.14444 7.6889 7.96667 7.86667L4.63333 11.2333C5.87778 13.3 7.27222 15.1 8.81667 16.6333C10.3611 18.1667 12.1111 19.4667 14.0667 20.5333L17.2333 17.2667C17.4556 17.0222 17.7111 16.85 18 16.75C18.2889 16.65 18.5778 16.6333 18.8667 16.7L22.8333 17.5667C23.1736 17.6417 23.4531 17.8104 23.6719 18.0729C23.8906 18.3354 24 18.6445 24 19V23.5C24 23.9286 23.8571 24.2857 23.5714 24.5714C23.2857 24.8572 22.9286 25 22.5 25ZM3.63333 9.40001L6.33333 6.66667L5.56667 3.00001H2C2 3.86667 2.13333 4.81667 2.4 5.85001C2.66667 6.88334 3.07778 8.06667 3.63333 9.40001ZM15.9333 21.5C16.8444 21.9222 17.8333 22.2667 18.9 22.5333C19.9667 22.8 21 22.9556 22 23V19.4333L18.5667 18.7333L15.9333 21.5Z" fill="white"/>
</svg>
