<svg width="22" height="28" viewBox="0 0 22 28" fill="none" xmlns="http://www.w3.org/2000/svg">
<path d="M11.003 13.6667C11.6455 13.6667 12.1945 13.4379 12.65 12.9804C13.1056 12.5228 13.3334 11.9728 13.3334 11.3304C13.3334 10.6879 13.1046 10.1389 12.6471 9.68332C12.1896 9.22777 11.6396 8.99999 10.9971 8.99999C10.3546 8.99999 9.8056 9.22876 9.35004 9.68629C8.89449 10.1438 8.66671 10.6938 8.66671 11.3363C8.66671 11.9788 8.89547 12.5278 9.35301 12.9833C9.81052 13.4389 10.3605 13.6667 11.003 13.6667ZM11 24.7C13.9556 22.0111 16.1389 19.5722 17.55 17.3833C18.9612 15.1944 19.6667 13.2667 19.6667 11.6C19.6667 8.98243 18.8301 6.83916 17.157 5.17016C15.4838 3.50116 13.4315 2.66666 11 2.66666C8.56855 2.66666 6.51624 3.50116 4.84311 5.17016C3.16995 6.83916 2.33337 8.98243 2.33337 11.6C2.33337 13.2667 3.0556 15.1944 4.50004 17.3833C5.94449 19.5722 8.11115 22.0111 11 24.7ZM11 27.3333C7.42226 24.2889 4.75004 21.4611 2.98337 18.85C1.21671 16.2389 0.333374 13.8222 0.333374 11.6C0.333374 8.26666 1.4056 5.6111 3.55004 3.63332C5.69449 1.65555 8.17782 0.666656 11 0.666656C13.8223 0.666656 16.3056 1.65555 18.45 3.63332C20.5945 5.6111 21.6667 8.26666 21.6667 11.6C21.6667 13.8222 20.7834 16.2389 19.0167 18.85C17.25 21.4611 14.5778 24.2889 11 27.3333Z" fill="white"/>
</svg>
