<svg width="54" height="51" viewBox="0 0 54 51" fill="none" xmlns="http://www.w3.org/2000/svg">
<path d="M27 50.6667L0.333374 10.3333C4.1556 7.13333 8.33337 4.61111 12.8667 2.76667C17.4 0.922222 22.1112 0 27 0C31.8889 0 36.6 0.922222 41.1334 2.76667C45.6667 4.61111 49.8445 7.13333 53.6667 10.3333L27 50.6667ZM27 43.5333L48.4 11.2667C45.2 9.17778 41.7962 7.44444 38.1886 6.06667C34.5809 4.68889 30.8514 4 27 4C23.1316 4 19.3978 4.68889 15.7987 6.06667C12.1996 7.44444 8.80004 9.17778 5.60004 11.2667L27 43.5333ZM19.6706 18.3333C20.6902 18.3333 21.5556 17.9765 22.2667 17.2627C22.9778 16.549 23.3334 15.6823 23.3334 14.6627C23.3334 13.6431 22.9765 12.7778 22.2628 12.0667C21.549 11.3556 20.6824 11 19.6628 11C18.6432 11 17.7778 11.3569 17.0667 12.0706C16.3556 12.7843 16 13.651 16 14.6706C16 15.6902 16.3569 16.5556 17.0706 17.2667C17.7844 17.9778 18.651 18.3333 19.6706 18.3333ZM27.004 32.6667C28.0236 32.6667 28.8889 32.3098 29.6 31.5961C30.3111 30.8823 30.6667 30.0157 30.6667 28.9961C30.6667 27.9765 30.3098 27.1111 29.5961 26.4C28.8824 25.6889 28.0157 25.3333 26.9961 25.3333C25.9765 25.3333 25.1112 25.6902 24.4 26.4039C23.6889 27.1177 23.3334 27.9843 23.3334 29.0039C23.3334 30.0235 23.6902 30.8889 24.404 31.6C25.1177 32.3111 25.9844 32.6667 27.004 32.6667Z" fill="white"/>
</svg>
